<svg width="18" height="18" viewBox="0 0 18 18" fill="none" xmlns="http://www.w3.org/2000/svg">
<path d="M0.615036 0.615006C0.731151 0.498598 0.86909 0.40624 1.02095 0.343224C1.17282 0.280208 1.33562 0.247772 1.50004 0.247772C1.66445 0.247772 1.82726 0.280208 1.97912 0.343224C2.13098 0.40624 2.26892 0.498598 2.38504 0.615006L9.00004 7.23251L15.615 0.615006C15.7313 0.498786 15.8692 0.406595 16.0211 0.343698C16.1729 0.2808 16.3357 0.248427 16.5 0.248427C16.6644 0.248427 16.8271 0.2808 16.979 0.343698C17.1308 0.406595 17.2688 0.498786 17.385 0.615006C17.5013 0.731226 17.5934 0.869199 17.6563 1.02105C17.7192 1.1729 17.7516 1.33565 17.7516 1.50001C17.7516 1.66437 17.7192 1.82712 17.6563 1.97897C17.5934 2.13081 17.5013 2.26879 17.385 2.38501L10.7675 9.00001L17.385 15.615C17.5013 15.7312 17.5934 15.8692 17.6563 16.021C17.7192 16.1729 17.7516 16.3356 17.7516 16.5C17.7516 16.6644 17.7192 16.8271 17.6563 16.979C17.5934 17.1308 17.5013 17.2688 17.385 17.385C17.2688 17.5012 17.1308 17.5934 16.979 17.6563C16.8271 17.7192 16.6644 17.7516 16.5 17.7516C16.3357 17.7516 16.1729 17.7192 16.0211 17.6563C15.8692 17.5934 15.7313 17.5012 15.615 17.385L9.00004 10.7675L2.38504 17.385C2.26882 17.5012 2.13084 17.5934 1.979 17.6563C1.82715 17.7192 1.6644 17.7516 1.50004 17.7516C1.33568 17.7516 1.17293 17.7192 1.02108 17.6563C0.869229 17.5934 0.731256 17.5012 0.615036 17.385C0.498817 17.2688 0.406626 17.1308 0.343728 16.979C0.28083 16.8271 0.248457 16.6644 0.248457 16.5C0.248457 16.3356 0.28083 16.1729 0.343728 16.021C0.406626 15.8692 0.498817 15.7312 0.615036 15.615L7.23254 9.00001L0.615036 2.38501C0.498628 2.26889 0.406271 2.13095 0.343255 1.97909C0.280239 1.82723 0.247803 1.66442 0.247803 1.50001C0.247803 1.33559 0.280239 1.17278 0.343255 1.02092C0.406271 0.869059 0.498628 0.73112 0.615036 0.615006Z" fill="black"/>
</svg>
